<svg fill="none" xmlns="http://www.w3.org/2000/svg" viewBox="0 0 1039 1038"><g clip-path="url(#clip0_4_18)"><path d="m501.1.3-.1.2-1.1.1v203.7c2.8-.2 5.5-.5 8.2-.6 174.2-6.1 320.4 130.2 326.5 304.5 6.1 174.3-130.2 320.3-304.4 326.4-174.2 6-320.4-130.3-326.5-304.5-3.3-80 56.6-47.7 206.5 5.9V330C73.8 201.2-8.2 284.2.6 537c10 286.4 250.3 510.5 536.7 500.5 286.4-10 510.5-250.3 500.5-536.7C1027.8 214.4 787.5-9.7 501.1.3Z" fill="#868686"/></g><defs><clipPath id="clip0_4_18"><path fill="#fff" d="M0 0h1038.1v1037.8H0z"/></clipPath></defs></svg>
